<svg width="53" height="54" viewBox="0 0 53 54" fill="none" xmlns="http://www.w3.org/2000/svg">
<path d="M26.5 0.448364C23.02 0.448364 19.574 1.13381 16.3589 2.46556C13.1438 3.79731 10.2224 5.74928 7.76167 8.21003C2.79196 13.1797 0 19.9201 0 26.9484C0 33.9766 2.79196 40.717 7.76167 45.6867C10.2224 48.1474 13.1438 50.0994 16.3589 51.4312C19.574 52.7629 23.02 53.4484 26.5 53.4484C33.5282 53.4484 40.2686 50.6564 45.2383 45.6867C50.208 40.717 53 33.9766 53 26.9484C53 23.4683 52.3146 20.0224 50.9828 16.8073C49.6511 13.5921 47.6991 10.6708 45.2383 8.21003C42.7776 5.74928 39.8562 3.79731 36.6411 2.46556C33.426 1.13381 29.98 0.448364 26.5 0.448364ZM10.6 13.6984H42.4V18.9984H10.6V13.6984ZM10.6 24.2984H42.4V29.5984H10.6V24.2984ZM10.6 34.8984H42.4V40.1984H10.6V34.8984Z" fill="#F8F8F8"/>
</svg>
