<svg width="30" height="30" viewBox="0 0 30 30" fill="none" xmlns="http://www.w3.org/2000/svg">
<path d="M28.3375 0H1.6625C1.22259 0.00327085 0.801623 0.179477 0.49055 0.49055C0.179477 0.801623 0.00327085 1.22259 0 1.6625V28.3375C0.00327085 28.7774 0.179477 29.1984 0.49055 29.5094C0.801623 29.8205 1.22259 29.9967 1.6625 30H16.025V18.4H12.125V13.8625H16.025V10.525C16.025 6.65 18.3875 4.5375 21.8625 4.5375C23.025 4.5375 24.1875 4.5375 25.35 4.7125V8.75H22.9625C21.075 8.75 20.7125 9.65 20.7125 10.9625V13.85H25.2125L24.625 18.3875H20.7125V30H28.3375C28.7774 29.9967 29.1984 29.8205 29.5094 29.5094C29.8205 29.1984 29.9967 28.7774 30 28.3375V1.6625C29.9967 1.22259 29.8205 0.801623 29.5094 0.49055C29.1984 0.179477 28.7774 0.00327085 28.3375 0Z" fill="#F8F8F8"/>
</svg>
