<svg width="61" height="60" viewBox="0 0 61 60" fill="none" xmlns="http://www.w3.org/2000/svg">
<path d="M57.2858 0H3.93584C3.05602 0.00654171 2.21409 0.358954 1.59194 0.9811C0.969793 1.60325 0.617382 2.44518 0.61084 3.325V56.675C0.617382 57.5548 0.969793 58.3968 1.59194 59.0189C2.21409 59.641 3.05602 59.9935 3.93584 60H32.6608V36.8H24.8608V27.725H32.6608V21.05C32.6608 13.3 37.3858 9.075 44.3358 9.075C46.6608 9.075 48.9858 9.075 51.3108 9.425V17.5H46.5358C42.7608 17.5 42.0358 19.3 42.0358 21.925V27.7H51.0358L49.8608 36.775H42.0358V60H57.2858C58.1657 59.9935 59.0076 59.641 59.6297 59.0189C60.2519 58.3968 60.6043 57.5548 60.6108 56.675V3.325C60.6043 2.44518 60.2519 1.60325 59.6297 0.9811C59.0076 0.358954 58.1657 0.00654171 57.2858 0Z" fill="#F8F8F8"/>
</svg>
