<svg width="81" height="80" viewBox="0 0 81 80" fill="none" xmlns="http://www.w3.org/2000/svg">
<g filter="url(#filter0_d_1473_41)">
<path d="M50.2108 40C50.2108 41.8987 49.6478 43.7548 48.5929 45.3335C47.5381 46.9122 46.0388 48.1426 44.2846 48.8692C42.5304 49.5958 40.6002 49.786 38.738 49.4155C36.8758 49.0451 35.1652 48.1308 33.8226 46.7882C32.48 45.4456 31.5657 43.7351 31.1953 41.8729C30.8249 40.0107 31.015 38.0804 31.7416 36.3262C32.4682 34.5721 33.6987 33.0728 35.2774 32.0179C36.8561 30.963 38.7121 30.4 40.6108 30.4C43.1545 30.4079 45.5917 31.4219 47.3903 33.2205C49.189 35.0192 50.2029 37.4564 50.2108 40ZM70.6108 26.8V53.2C70.6108 57.6556 68.8408 61.9288 65.6902 65.0794C62.5396 68.23 58.2665 70 53.8108 70H27.4108C22.9552 70 18.6821 68.23 15.5314 65.0794C12.3808 61.9288 10.6108 57.6556 10.6108 53.2V26.8C10.6108 22.3444 12.3808 18.0712 15.5314 14.9206C18.6821 11.77 22.9552 10 27.4108 10H53.8108C58.2665 10 62.5396 11.77 65.6902 14.9206C68.8408 18.0712 70.6108 22.3444 70.6108 26.8ZM55.0108 40C55.0108 37.152 54.1663 34.3679 52.584 31.9998C51.0017 29.6317 48.7527 27.786 46.1215 26.6961C43.4902 25.6062 40.5949 25.3211 37.8015 25.8767C35.0082 26.4323 32.4424 27.8038 30.4285 29.8177C28.4146 31.8315 27.0432 34.3974 26.4875 37.1907C25.9319 39.984 26.2171 42.8794 27.307 45.5106C28.3969 48.1419 30.2426 50.3909 32.6106 51.9732C34.9787 53.5555 37.7628 54.4 40.6108 54.4C44.43 54.4 48.0927 52.8829 50.7932 50.1823C53.4937 47.4818 55.0108 43.8191 55.0108 40ZM59.8108 24.4C59.8108 23.688 59.5997 22.992 59.2041 22.3999C58.8086 21.8079 58.2463 21.3465 57.5885 21.074C56.9307 20.8016 56.2068 20.7303 55.5085 20.8692C54.8102 21.0081 54.1687 21.3509 53.6653 21.8544C53.1618 22.3579 52.8189 22.9993 52.68 23.6977C52.5411 24.396 52.6124 25.1198 52.8849 25.7777C53.1574 26.4355 53.6188 26.9977 54.2108 27.3933C54.8028 27.7889 55.4988 28 56.2108 28C57.1656 28 58.0813 27.6207 58.7564 26.9456C59.4316 26.2705 59.8108 25.3548 59.8108 24.4Z" fill="#F8F8F8"/>
</g>
<defs>
<filter id="filter0_d_1473_41" x="0.61084" y="0" width="80" height="80" filterUnits="userSpaceOnUse" color-interpolation-filters="sRGB">
<feFlood flood-opacity="0" result="BackgroundImageFix"/>
<feColorMatrix in="SourceAlpha" type="matrix" values="0 0 0 0 0 0 0 0 0 0 0 0 0 0 0 0 0 0 127 0" result="hardAlpha"/>
<feOffset/>
<feGaussianBlur stdDeviation="5"/>
<feComposite in2="hardAlpha" operator="out"/>
<feColorMatrix type="matrix" values="0 0 0 0 0 0 0 0 0 0 0 0 0 0 0 0 0 0 0.55 0"/>
<feBlend mode="normal" in2="BackgroundImageFix" result="effect1_dropShadow_1473_41"/>
<feBlend mode="normal" in="SourceGraphic" in2="effect1_dropShadow_1473_41" result="shape"/>
</filter>
</defs>
</svg>
