<svg width="30" height="30" viewBox="0 0 30 30" fill="none" xmlns="http://www.w3.org/2000/svg">
<path d="M27 0H3C1.35 0 0 1.6875 0 3.75V26.25C0 28.3125 1.35 30 3 30H27C28.65 30 30 28.3125 30 26.25V3.75C30 1.6875 28.65 0 27 0ZM26.4 7.96875L16.59 15.6375C15.615 16.4062 14.385 16.4062 13.41 15.6375L3.6 7.96875C3.44959 7.86321 3.31788 7.72061 3.21283 7.5496C3.10779 7.37859 3.03159 7.18271 2.98886 6.97382C2.94613 6.76493 2.93775 6.54738 2.96423 6.33433C2.99072 6.12127 3.0515 5.91715 3.14292 5.73431C3.23434 5.55148 3.35449 5.39373 3.49609 5.27062C3.63769 5.1475 3.79781 5.06158 3.96674 5.01806C4.13568 4.97454 4.30992 4.97431 4.47893 5.0174C4.64794 5.06049 4.8082 5.146 4.95 5.26875L15 13.125L25.05 5.26875C25.1918 5.146 25.3521 5.06049 25.5211 5.0174C25.6901 4.97431 25.8643 4.97454 26.0333 5.01806C26.2022 5.06158 26.3623 5.1475 26.5039 5.27062C26.6455 5.39373 26.7657 5.55148 26.8571 5.73431C26.9485 5.91715 27.0093 6.12127 27.0358 6.33433C27.0622 6.54738 27.0539 6.76493 27.0111 6.97382C26.9684 7.18271 26.8922 7.37859 26.7872 7.5496C26.6821 7.72061 26.5504 7.86321 26.4 7.96875Z" fill="#F8F8F8"/>
</svg>
